<?xml version="1.0" encoding="UTF-8"?>
<svg xmlns="http://www.w3.org/2000/svg" xmlns:xlink="http://www.w3.org/1999/xlink"
     width="568.864" height="39.408" viewBox="0 -39.408 568.864 39.408">
<defs>
<g id="d0">
<g>
<symbol overflow="visible" id="embed--4488644464520087492-glyph0-0">
<path style="stroke:none;" d=""/>
</symbol>
<symbol overflow="visible" id="embed--4488644464520087492-glyph0-1">
<path style="stroke:none;" d="M 3.734375 -6.03125 C 3.8125 -6.390625 3.84375 -6.5 4.78125 -6.5 C 5.078125 -6.5 5.15625 -6.5 5.15625 -6.6875 C 5.15625 -6.8125 5.046875 -6.8125 5 -6.8125 C 4.671875 -6.8125 3.859375 -6.78125 3.53125 -6.78125 C 3.234375 -6.78125 2.5 -6.8125 2.203125 -6.8125 C 2.140625 -6.8125 2.015625 -6.8125 2.015625 -6.609375 C 2.015625 -6.5 2.109375 -6.5 2.296875 -6.5 C 2.3125 -6.5 2.5 -6.5 2.671875 -6.484375 C 2.84375 -6.453125 2.9375 -6.453125 2.9375 -6.3125 C 2.9375 -6.28125 2.9375 -6.25 2.90625 -6.125 L 1.5625 -0.78125 C 1.46875 -0.390625 1.453125 -0.3125 0.65625 -0.3125 C 0.484375 -0.3125 0.390625 -0.3125 0.390625 -0.109375 C 0.390625 0 0.484375 0 0.65625 0 L 5.28125 0 C 5.515625 0 5.515625 0 5.578125 -0.171875 L 6.375 -2.328125 C 6.40625 -2.4375 6.40625 -2.453125 6.40625 -2.46875 C 6.40625 -2.5 6.375 -2.578125 6.296875 -2.578125 C 6.203125 -2.578125 6.1875 -2.515625 6.125 -2.359375 C 5.78125 -1.453125 5.34375 -0.3125 3.625 -0.3125 L 2.6875 -0.3125 C 2.546875 -0.3125 2.515625 -0.3125 2.46875 -0.3125 C 2.359375 -0.328125 2.328125 -0.34375 2.328125 -0.421875 C 2.328125 -0.453125 2.328125 -0.46875 2.375 -0.640625 Z M 3.734375 -6.03125 "/>
</symbol>
<symbol overflow="visible" id="embed--4488644464520087492-glyph0-2">
<path style="stroke:none;" d="M 1.78125 -1.140625 C 1.390625 -0.484375 1 -0.34375 0.5625 -0.3125 C 0.4375 -0.296875 0.34375 -0.296875 0.34375 -0.109375 C 0.34375 -0.046875 0.40625 0 0.484375 0 C 0.75 0 1.0625 -0.03125 1.328125 -0.03125 C 1.671875 -0.03125 2.015625 0 2.328125 0 C 2.390625 0 2.515625 0 2.515625 -0.1875 C 2.515625 -0.296875 2.4375 -0.3125 2.359375 -0.3125 C 2.140625 -0.328125 1.890625 -0.40625 1.890625 -0.65625 C 1.890625 -0.78125 1.953125 -0.890625 2.03125 -1.03125 L 2.796875 -2.296875 L 5.296875 -2.296875 C 5.3125 -2.09375 5.453125 -0.734375 5.453125 -0.640625 C 5.453125 -0.34375 4.9375 -0.3125 4.734375 -0.3125 C 4.59375 -0.3125 4.5 -0.3125 4.5 -0.109375 C 4.5 0 4.609375 0 4.640625 0 C 5.046875 0 5.46875 -0.03125 5.875 -0.03125 C 6.125 -0.03125 6.765625 0 7.015625 0 C 7.0625 0 7.1875 0 7.1875 -0.203125 C 7.1875 -0.3125 7.09375 -0.3125 6.953125 -0.3125 C 6.34375 -0.3125 6.34375 -0.375 6.3125 -0.671875 L 5.703125 -6.890625 C 5.6875 -7.09375 5.6875 -7.140625 5.515625 -7.140625 C 5.359375 -7.140625 5.3125 -7.0625 5.25 -6.96875 Z M 2.984375 -2.609375 L 4.9375 -5.90625 L 5.265625 -2.609375 Z M 2.984375 -2.609375 "/>
</symbol>
<symbol overflow="visible" id="embed--4488644464520087492-glyph0-3">
<path style="stroke:none;" d="M 4.25 -6.046875 C 4.328125 -6.328125 4.359375 -6.390625 4.484375 -6.421875 C 4.578125 -6.4375 4.90625 -6.4375 5.109375 -6.4375 C 6.125 -6.4375 6.5625 -6.40625 6.5625 -5.625 C 6.5625 -5.46875 6.53125 -5.078125 6.484375 -4.828125 C 6.484375 -4.78125 6.453125 -4.671875 6.453125 -4.640625 C 6.453125 -4.578125 6.484375 -4.5 6.578125 -4.5 C 6.6875 -4.5 6.703125 -4.578125 6.734375 -4.734375 L 7 -6.46875 C 7.015625 -6.515625 7.015625 -6.609375 7.015625 -6.640625 C 7.015625 -6.75 6.921875 -6.75 6.75 -6.75 L 1.21875 -6.75 C 0.984375 -6.75 0.96875 -6.734375 0.890625 -6.546875 L 0.296875 -4.796875 C 0.296875 -4.78125 0.234375 -4.640625 0.234375 -4.609375 C 0.234375 -4.5625 0.296875 -4.5 0.359375 -4.5 C 0.453125 -4.5 0.46875 -4.5625 0.53125 -4.71875 C 1.0625 -6.265625 1.328125 -6.4375 2.796875 -6.4375 L 3.1875 -6.4375 C 3.46875 -6.4375 3.46875 -6.40625 3.46875 -6.3125 C 3.46875 -6.265625 3.4375 -6.140625 3.421875 -6.109375 L 2.09375 -0.78125 C 2 -0.421875 1.96875 -0.3125 0.90625 -0.3125 C 0.546875 -0.3125 0.484375 -0.3125 0.484375 -0.125 C 0.484375 0 0.59375 0 0.65625 0 C 0.921875 0 1.203125 -0.015625 1.46875 -0.015625 C 1.75 -0.015625 2.046875 -0.03125 2.328125 -0.03125 C 2.609375 -0.03125 2.875 -0.015625 3.15625 -0.015625 C 3.4375 -0.015625 3.734375 0 4.015625 0 C 4.109375 0 4.234375 0 4.234375 -0.203125 C 4.234375 -0.3125 4.15625 -0.3125 3.890625 -0.3125 C 3.65625 -0.3125 3.515625 -0.3125 3.265625 -0.328125 C 2.96875 -0.359375 2.890625 -0.390625 2.890625 -0.546875 C 2.890625 -0.5625 2.890625 -0.609375 2.9375 -0.75 Z M 4.25 -6.046875 "/>
</symbol>
<symbol overflow="visible" id="embed--4488644464520087492-glyph0-4">
<path style="stroke:none;" d="M 7.0625 -2.328125 C 7.078125 -2.375 7.109375 -2.4375 7.109375 -2.46875 C 7.109375 -2.46875 7.109375 -2.578125 6.984375 -2.578125 C 6.890625 -2.578125 6.875 -2.515625 6.859375 -2.453125 C 6.203125 -0.984375 5.84375 -0.3125 4.140625 -0.3125 L 2.6875 -0.3125 C 2.546875 -0.3125 2.515625 -0.3125 2.46875 -0.3125 C 2.359375 -0.328125 2.328125 -0.34375 2.328125 -0.421875 C 2.328125 -0.453125 2.328125 -0.46875 2.375 -0.640625 L 3.0625 -3.375 L 4.046875 -3.375 C 4.890625 -3.375 4.890625 -3.15625 4.890625 -2.90625 C 4.890625 -2.84375 4.890625 -2.71875 4.828125 -2.421875 C 4.8125 -2.375 4.796875 -2.34375 4.796875 -2.3125 C 4.796875 -2.265625 4.828125 -2.203125 4.921875 -2.203125 C 5 -2.203125 5.03125 -2.25 5.078125 -2.40625 L 5.640625 -4.734375 C 5.640625 -4.796875 5.59375 -4.84375 5.515625 -4.84375 C 5.4375 -4.84375 5.40625 -4.78125 5.390625 -4.671875 C 5.171875 -3.90625 5 -3.671875 4.078125 -3.671875 L 3.140625 -3.671875 L 3.734375 -6.078125 C 3.828125 -6.4375 3.84375 -6.46875 4.28125 -6.46875 L 5.6875 -6.46875 C 6.890625 -6.46875 7.203125 -6.1875 7.203125 -5.359375 C 7.203125 -5.125 7.203125 -5.109375 7.15625 -4.828125 C 7.15625 -4.78125 7.140625 -4.703125 7.140625 -4.65625 C 7.140625 -4.609375 7.171875 -4.53125 7.265625 -4.53125 C 7.375 -4.53125 7.390625 -4.59375 7.40625 -4.78125 L 7.609375 -6.515625 C 7.640625 -6.78125 7.59375 -6.78125 7.34375 -6.78125 L 2.296875 -6.78125 C 2.109375 -6.78125 2 -6.78125 2 -6.578125 C 2 -6.46875 2.09375 -6.46875 2.28125 -6.46875 C 2.65625 -6.46875 2.9375 -6.46875 2.9375 -6.296875 C 2.9375 -6.25 2.9375 -6.234375 2.875 -6.046875 L 1.5625 -0.78125 C 1.46875 -0.390625 1.453125 -0.3125 0.65625 -0.3125 C 0.484375 -0.3125 0.375 -0.3125 0.375 -0.125 C 0.375 0 0.46875 0 0.65625 0 L 5.828125 0 C 6.0625 0 6.078125 -0.015625 6.140625 -0.171875 Z M 7.0625 -2.328125 "/>
</symbol>
<symbol overflow="visible" id="embed--4488644464520087492-glyph0-5">
<path style="stroke:none;" d="M 4.828125 -4.09375 L 4 -6.078125 C 3.96875 -6.15625 3.953125 -6.203125 3.953125 -6.203125 C 3.953125 -6.265625 4.109375 -6.453125 4.53125 -6.5 C 4.640625 -6.515625 4.734375 -6.515625 4.734375 -6.6875 C 4.734375 -6.8125 4.609375 -6.8125 4.578125 -6.8125 C 4.171875 -6.8125 3.75 -6.78125 3.328125 -6.78125 C 3.078125 -6.78125 2.46875 -6.8125 2.21875 -6.8125 C 2.15625 -6.8125 2.03125 -6.8125 2.03125 -6.609375 C 2.03125 -6.5 2.140625 -6.5 2.265625 -6.5 C 2.859375 -6.5 2.921875 -6.40625 3.015625 -6.1875 L 4.1875 -3.40625 L 2.078125 -1.140625 L 1.953125 -1.03125 C 1.46875 -0.5 1 -0.34375 0.484375 -0.3125 C 0.359375 -0.296875 0.265625 -0.296875 0.265625 -0.109375 C 0.265625 -0.09375 0.265625 0 0.40625 0 C 0.703125 0 1.03125 -0.03125 1.328125 -0.03125 C 1.703125 -0.03125 2.09375 0 2.453125 0 C 2.515625 0 2.625 0 2.625 -0.203125 C 2.625 -0.296875 2.53125 -0.3125 2.515625 -0.3125 C 2.421875 -0.3125 2.109375 -0.34375 2.109375 -0.625 C 2.109375 -0.78125 2.265625 -0.9375 2.375 -1.0625 L 3.40625 -2.140625 L 4.296875 -3.125 L 5.296875 -0.734375 C 5.34375 -0.625 5.359375 -0.625 5.359375 -0.59375 C 5.359375 -0.515625 5.15625 -0.34375 4.78125 -0.3125 C 4.671875 -0.296875 4.578125 -0.296875 4.578125 -0.125 C 4.578125 0 4.6875 0 4.71875 0 C 5 0 5.703125 -0.03125 5.984375 -0.03125 C 6.234375 -0.03125 6.84375 0 7.09375 0 C 7.15625 0 7.28125 0 7.28125 -0.1875 C 7.28125 -0.3125 7.171875 -0.3125 7.09375 -0.3125 C 6.4375 -0.3125 6.40625 -0.34375 6.234375 -0.75 C 5.859375 -1.671875 5.1875 -3.234375 4.953125 -3.828125 C 5.625 -4.53125 6.671875 -5.71875 7 -5.984375 C 7.28125 -6.234375 7.671875 -6.46875 8.265625 -6.5 C 8.390625 -6.515625 8.484375 -6.515625 8.484375 -6.703125 C 8.484375 -6.703125 8.484375 -6.8125 8.359375 -6.8125 C 8.0625 -6.8125 7.71875 -6.78125 7.421875 -6.78125 C 7.046875 -6.78125 6.671875 -6.8125 6.3125 -6.8125 C 6.25 -6.8125 6.125 -6.8125 6.125 -6.609375 C 6.125 -6.546875 6.171875 -6.515625 6.234375 -6.5 C 6.328125 -6.484375 6.640625 -6.46875 6.640625 -6.1875 C 6.640625 -6.046875 6.53125 -5.921875 6.453125 -5.828125 Z M 4.828125 -4.09375 "/>
</symbol>
<symbol overflow="visible" id="embed--4488644464520087492-glyph0-6">
<path style="stroke:none;" d="M 7.375 -4.34375 C 7.375 -5.953125 6.3125 -7.03125 4.828125 -7.03125 C 2.6875 -7.03125 0.484375 -4.765625 0.484375 -2.4375 C 0.484375 -0.78125 1.609375 0.21875 3.046875 0.21875 C 5.15625 0.21875 7.375 -1.96875 7.375 -4.34375 Z M 3.09375 -0.046875 C 2.109375 -0.046875 1.421875 -0.84375 1.421875 -2.15625 C 1.421875 -2.609375 1.5625 -4.0625 2.328125 -5.21875 C 3.015625 -6.265625 3.984375 -6.78125 4.78125 -6.78125 C 5.59375 -6.78125 6.484375 -6.21875 6.484375 -4.734375 C 6.484375 -4.015625 6.21875 -2.46875 5.234375 -1.234375 C 4.75 -0.625 3.9375 -0.046875 3.09375 -0.046875 Z M 3.09375 -0.046875 "/>
</symbol>
<symbol overflow="visible" id="embed--4488644464520087492-glyph0-7">
<path style="stroke:none;" d="M 6.4375 -6.921875 C 6.4375 -6.953125 6.40625 -7.03125 6.3125 -7.03125 C 6.265625 -7.03125 6.265625 -7.015625 6.140625 -6.875 L 5.65625 -6.3125 C 5.40625 -6.78125 4.890625 -7.03125 4.234375 -7.03125 C 2.96875 -7.03125 1.78125 -5.875 1.78125 -4.671875 C 1.78125 -3.875 2.296875 -3.40625 2.8125 -3.265625 L 3.875 -2.984375 C 4.25 -2.890625 4.796875 -2.734375 4.796875 -1.921875 C 4.796875 -1.03125 3.984375 -0.09375 3 -0.09375 C 2.359375 -0.09375 1.25 -0.3125 1.25 -1.546875 C 1.25 -1.78125 1.3125 -2.03125 1.3125 -2.078125 C 1.328125 -2.125 1.328125 -2.140625 1.328125 -2.15625 C 1.328125 -2.25 1.265625 -2.265625 1.21875 -2.265625 C 1.171875 -2.265625 1.140625 -2.25 1.109375 -2.21875 C 1.078125 -2.1875 0.515625 0.09375 0.515625 0.125 C 0.515625 0.171875 0.5625 0.21875 0.625 0.21875 C 0.671875 0.21875 0.6875 0.203125 0.8125 0.0625 L 1.296875 -0.5 C 1.71875 0.078125 2.40625 0.21875 2.984375 0.21875 C 4.34375 0.21875 5.515625 -1.109375 5.515625 -2.34375 C 5.515625 -3.03125 5.171875 -3.375 5.03125 -3.515625 C 4.796875 -3.734375 4.640625 -3.78125 3.765625 -4 C 3.53125 -4.0625 3.1875 -4.171875 3.09375 -4.1875 C 2.828125 -4.28125 2.484375 -4.5625 2.484375 -5.09375 C 2.484375 -5.90625 3.28125 -6.75 4.234375 -6.75 C 5.046875 -6.75 5.65625 -6.3125 5.65625 -5.203125 C 5.65625 -4.890625 5.625 -4.703125 5.625 -4.640625 C 5.625 -4.640625 5.625 -4.546875 5.734375 -4.546875 C 5.84375 -4.546875 5.859375 -4.578125 5.890625 -4.75 Z M 6.4375 -6.921875 "/>
</symbol>
</g>
</g>
</defs>
<g transform="scale(2.6666666666666665) translate(0, -14.778)">
<g id="embed--4488644464520087492-surface1">
<g style="fill:rgb(0%,0%,0%);fill-opacity:1;">
  <use xlink:href="#embed--4488644464520087492-glyph0-1" x="10.959" y="10.793"/>
</g>
<path style="fill:none;stroke-width:0.398;stroke-linecap:round;stroke-linejoin:round;stroke:rgb(0%,0%,0%);stroke-opacity:1;stroke-miterlimit:10;" d="M 19.730563 6.392906 L 6.97275 6.392906 " transform="matrix(1,0,0,-1,0.996,7.389)"/>
<path style="fill:none;stroke-width:0.398;stroke-linecap:round;stroke-linejoin:round;stroke:rgb(0%,0%,0%);stroke-opacity:1;stroke-miterlimit:10;" d="M 6.97275 6.392906 L 6.97275 -6.39225 " transform="matrix(1,0,0,-1,0.996,7.389)"/>
<path style="fill:none;stroke-width:0.398;stroke-linecap:round;stroke-linejoin:round;stroke:rgb(0%,0%,0%);stroke-opacity:1;stroke-miterlimit:10;" d="M 6.97275 -6.39225 L 19.730563 -6.39225 " transform="matrix(1,0,0,-1,0.996,7.389)"/>
<path style="fill:none;stroke-width:0.398;stroke-linecap:round;stroke-linejoin:round;stroke:rgb(0%,0%,0%);stroke-opacity:1;stroke-miterlimit:10;" d="M 19.730563 -6.39225 L 19.730563 6.392906 " transform="matrix(1,0,0,-1,0.996,7.389)"/>
<path style="fill:none;stroke-width:0.398;stroke-linecap:round;stroke-linejoin:round;stroke:rgb(0%,0%,0%);stroke-opacity:1;stroke-miterlimit:10;" d="M 6.97275 -0.001625 L 0.00009375 -0.001625 " transform="matrix(1,0,0,-1,0.996,7.389)"/>
<g style="fill:rgb(0%,0%,0%);fill-opacity:1;">
  <use xlink:href="#embed--4488644464520087492-glyph0-2" x="30.69" y="10.793"/>
</g>
<path style="fill:none;stroke-width:0.398;stroke-linecap:round;stroke-linejoin:round;stroke:rgb(0%,0%,0%);stroke-opacity:1;stroke-miterlimit:10;" d="M 40.156344 6.392906 L 26.703219 6.392906 " transform="matrix(1,0,0,-1,0.996,7.389)"/>
<path style="fill:none;stroke-width:0.398;stroke-linecap:round;stroke-linejoin:round;stroke:rgb(0%,0%,0%);stroke-opacity:1;stroke-miterlimit:10;" d="M 26.703219 6.392906 L 26.703219 -6.39225 " transform="matrix(1,0,0,-1,0.996,7.389)"/>
<path style="fill:none;stroke-width:0.398;stroke-linecap:round;stroke-linejoin:round;stroke:rgb(0%,0%,0%);stroke-opacity:1;stroke-miterlimit:10;" d="M 26.703219 -6.39225 L 40.156344 -6.39225 " transform="matrix(1,0,0,-1,0.996,7.389)"/>
<path style="fill:none;stroke-width:0.398;stroke-linecap:round;stroke-linejoin:round;stroke:rgb(0%,0%,0%);stroke-opacity:1;stroke-miterlimit:10;" d="M 40.156344 -6.39225 L 40.156344 6.392906 " transform="matrix(1,0,0,-1,0.996,7.389)"/>
<path style="fill:none;stroke-width:0.398;stroke-linecap:round;stroke-linejoin:round;stroke:rgb(0%,0%,0%);stroke-opacity:1;stroke-miterlimit:10;" d="M 26.703219 -0.001625 L 19.730563 -0.001625 " transform="matrix(1,0,0,-1,0.996,7.389)"/>
<g style="fill:rgb(0%,0%,0%);fill-opacity:1;">
  <use xlink:href="#embed--4488644464520087492-glyph0-3" x="51.114" y="10.793"/>
</g>
<path style="fill:none;stroke-width:0.398;stroke-linecap:round;stroke-linejoin:round;stroke:rgb(0%,0%,0%);stroke-opacity:1;stroke-miterlimit:10;" d="M 60.312594 6.392906 L 47.129 6.392906 " transform="matrix(1,0,0,-1,0.996,7.389)"/>
<path style="fill:none;stroke-width:0.398;stroke-linecap:round;stroke-linejoin:round;stroke:rgb(0%,0%,0%);stroke-opacity:1;stroke-miterlimit:10;" d="M 47.129 6.392906 L 47.129 -6.39225 " transform="matrix(1,0,0,-1,0.996,7.389)"/>
<path style="fill:none;stroke-width:0.398;stroke-linecap:round;stroke-linejoin:round;stroke:rgb(0%,0%,0%);stroke-opacity:1;stroke-miterlimit:10;" d="M 47.129 -6.39225 L 60.312594 -6.39225 " transform="matrix(1,0,0,-1,0.996,7.389)"/>
<path style="fill:none;stroke-width:0.398;stroke-linecap:round;stroke-linejoin:round;stroke:rgb(0%,0%,0%);stroke-opacity:1;stroke-miterlimit:10;" d="M 60.312594 -6.39225 L 60.312594 6.392906 " transform="matrix(1,0,0,-1,0.996,7.389)"/>
<path style="fill:none;stroke-width:0.398;stroke-linecap:round;stroke-linejoin:round;stroke:rgb(0%,0%,0%);stroke-opacity:1;stroke-miterlimit:10;" d="M 47.129 -0.001625 L 40.156344 -0.001625 " transform="matrix(1,0,0,-1,0.996,7.389)"/>
<g style="fill:rgb(0%,0%,0%);fill-opacity:1;">
  <use xlink:href="#embed--4488644464520087492-glyph0-4" x="71.271" y="10.793"/>
</g>
<path style="fill:none;stroke-width:0.398;stroke-linecap:round;stroke-linejoin:round;stroke:rgb(0%,0%,0%);stroke-opacity:1;stroke-miterlimit:10;" d="M 81.1915 6.392906 L 67.28525 6.392906 " transform="matrix(1,0,0,-1,0.996,7.389)"/>
<path style="fill:none;stroke-width:0.398;stroke-linecap:round;stroke-linejoin:round;stroke:rgb(0%,0%,0%);stroke-opacity:1;stroke-miterlimit:10;" d="M 67.28525 6.392906 L 67.28525 -6.39225 " transform="matrix(1,0,0,-1,0.996,7.389)"/>
<path style="fill:none;stroke-width:0.398;stroke-linecap:round;stroke-linejoin:round;stroke:rgb(0%,0%,0%);stroke-opacity:1;stroke-miterlimit:10;" d="M 67.28525 -6.39225 L 81.1915 -6.39225 " transform="matrix(1,0,0,-1,0.996,7.389)"/>
<path style="fill:none;stroke-width:0.398;stroke-linecap:round;stroke-linejoin:round;stroke:rgb(0%,0%,0%);stroke-opacity:1;stroke-miterlimit:10;" d="M 81.1915 -6.39225 L 81.1915 6.392906 " transform="matrix(1,0,0,-1,0.996,7.389)"/>
<path style="fill:none;stroke-width:0.398;stroke-linecap:round;stroke-linejoin:round;stroke:rgb(0%,0%,0%);stroke-opacity:1;stroke-miterlimit:10;" d="M 67.28525 -0.001625 L 60.312594 -0.001625 " transform="matrix(1,0,0,-1,0.996,7.389)"/>
<g style="fill:rgb(0%,0%,0%);fill-opacity:1;">
  <use xlink:href="#embed--4488644464520087492-glyph0-5" x="92.151" y="10.793"/>
</g>
<path style="fill:none;stroke-width:0.398;stroke-linecap:round;stroke-linejoin:round;stroke:rgb(0%,0%,0%);stroke-opacity:1;stroke-miterlimit:10;" d="M 103.179781 6.392906 L 88.164156 6.392906 " transform="matrix(1,0,0,-1,0.996,7.389)"/>
<path style="fill:none;stroke-width:0.398;stroke-linecap:round;stroke-linejoin:round;stroke:rgb(0%,0%,0%);stroke-opacity:1;stroke-miterlimit:10;" d="M 88.164156 6.392906 L 88.164156 -6.39225 " transform="matrix(1,0,0,-1,0.996,7.389)"/>
<path style="fill:none;stroke-width:0.398;stroke-linecap:round;stroke-linejoin:round;stroke:rgb(0%,0%,0%);stroke-opacity:1;stroke-miterlimit:10;" d="M 88.164156 -6.39225 L 103.179781 -6.39225 " transform="matrix(1,0,0,-1,0.996,7.389)"/>
<path style="fill:none;stroke-width:0.398;stroke-linecap:round;stroke-linejoin:round;stroke:rgb(0%,0%,0%);stroke-opacity:1;stroke-miterlimit:10;" d="M 103.179781 -6.39225 L 103.179781 6.392906 " transform="matrix(1,0,0,-1,0.996,7.389)"/>
<path style="fill:none;stroke-width:0.398;stroke-linecap:round;stroke-linejoin:round;stroke:rgb(0%,0%,0%);stroke-opacity:1;stroke-miterlimit:10;" d="M 88.164156 -0.001625 L 81.1915 -0.001625 " transform="matrix(1,0,0,-1,0.996,7.389)"/>
<g style="fill:rgb(0%,0%,0%);fill-opacity:1;">
  <use xlink:href="#embed--4488644464520087492-glyph0-3" x="114.138" y="10.793"/>
</g>
<path style="fill:none;stroke-width:0.398;stroke-linecap:round;stroke-linejoin:round;stroke:rgb(0%,0%,0%);stroke-opacity:1;stroke-miterlimit:10;" d="M 123.336031 6.392906 L 110.152438 6.392906 " transform="matrix(1,0,0,-1,0.996,7.389)"/>
<path style="fill:none;stroke-width:0.398;stroke-linecap:round;stroke-linejoin:round;stroke:rgb(0%,0%,0%);stroke-opacity:1;stroke-miterlimit:10;" d="M 110.152438 6.392906 L 110.152438 -6.39225 " transform="matrix(1,0,0,-1,0.996,7.389)"/>
<path style="fill:none;stroke-width:0.398;stroke-linecap:round;stroke-linejoin:round;stroke:rgb(0%,0%,0%);stroke-opacity:1;stroke-miterlimit:10;" d="M 110.152438 -6.39225 L 123.336031 -6.39225 " transform="matrix(1,0,0,-1,0.996,7.389)"/>
<path style="fill:none;stroke-width:0.398;stroke-linecap:round;stroke-linejoin:round;stroke:rgb(0%,0%,0%);stroke-opacity:1;stroke-miterlimit:10;" d="M 123.336031 -6.39225 L 123.336031 6.392906 " transform="matrix(1,0,0,-1,0.996,7.389)"/>
<path style="fill:none;stroke-width:0.398;stroke-linecap:round;stroke-linejoin:round;stroke:rgb(0%,0%,0%);stroke-opacity:1;stroke-miterlimit:10;" d="M 110.152438 -0.001625 L 103.179781 -0.001625 " transform="matrix(1,0,0,-1,0.996,7.389)"/>
<g style="fill:rgb(0%,0%,0%);fill-opacity:1;">
  <use xlink:href="#embed--4488644464520087492-glyph0-6" x="134.295" y="10.793"/>
</g>
<path style="fill:none;stroke-width:0.398;stroke-linecap:round;stroke-linejoin:round;stroke:rgb(0%,0%,0%);stroke-opacity:1;stroke-miterlimit:10;" d="M 144.164156 6.392906 L 130.308687 6.392906 " transform="matrix(1,0,0,-1,0.996,7.389)"/>
<path style="fill:none;stroke-width:0.398;stroke-linecap:round;stroke-linejoin:round;stroke:rgb(0%,0%,0%);stroke-opacity:1;stroke-miterlimit:10;" d="M 130.308687 6.392906 L 130.308687 -6.39225 " transform="matrix(1,0,0,-1,0.996,7.389)"/>
<path style="fill:none;stroke-width:0.398;stroke-linecap:round;stroke-linejoin:round;stroke:rgb(0%,0%,0%);stroke-opacity:1;stroke-miterlimit:10;" d="M 130.308687 -6.39225 L 144.164156 -6.39225 " transform="matrix(1,0,0,-1,0.996,7.389)"/>
<path style="fill:none;stroke-width:0.398;stroke-linecap:round;stroke-linejoin:round;stroke:rgb(0%,0%,0%);stroke-opacity:1;stroke-miterlimit:10;" d="M 144.164156 -6.39225 L 144.164156 6.392906 " transform="matrix(1,0,0,-1,0.996,7.389)"/>
<path style="fill:none;stroke-width:0.398;stroke-linecap:round;stroke-linejoin:round;stroke:rgb(0%,0%,0%);stroke-opacity:1;stroke-miterlimit:10;" d="M 130.308687 -0.001625 L 123.336031 -0.001625 " transform="matrix(1,0,0,-1,0.996,7.389)"/>
<g style="fill:rgb(0%,0%,0%);fill-opacity:1;">
  <use xlink:href="#embed--4488644464520087492-glyph0-6" x="155.123" y="10.793"/>
</g>
<path style="fill:none;stroke-width:0.398;stroke-linecap:round;stroke-linejoin:round;stroke:rgb(0%,0%,0%);stroke-opacity:1;stroke-miterlimit:10;" d="M 164.992281 6.392906 L 151.136812 6.392906 " transform="matrix(1,0,0,-1,0.996,7.389)"/>
<path style="fill:none;stroke-width:0.398;stroke-linecap:round;stroke-linejoin:round;stroke:rgb(0%,0%,0%);stroke-opacity:1;stroke-miterlimit:10;" d="M 151.136812 6.392906 L 151.136812 -6.39225 " transform="matrix(1,0,0,-1,0.996,7.389)"/>
<path style="fill:none;stroke-width:0.398;stroke-linecap:round;stroke-linejoin:round;stroke:rgb(0%,0%,0%);stroke-opacity:1;stroke-miterlimit:10;" d="M 151.136812 -6.39225 L 164.992281 -6.39225 " transform="matrix(1,0,0,-1,0.996,7.389)"/>
<path style="fill:none;stroke-width:0.398;stroke-linecap:round;stroke-linejoin:round;stroke:rgb(0%,0%,0%);stroke-opacity:1;stroke-miterlimit:10;" d="M 164.992281 -6.39225 L 164.992281 6.392906 " transform="matrix(1,0,0,-1,0.996,7.389)"/>
<path style="fill:none;stroke-width:0.398;stroke-linecap:round;stroke-linejoin:round;stroke:rgb(0%,0%,0%);stroke-opacity:1;stroke-miterlimit:10;" d="M 151.136812 -0.001625 L 144.164156 -0.001625 " transform="matrix(1,0,0,-1,0.996,7.389)"/>
<g style="fill:rgb(0%,0%,0%);fill-opacity:1;">
  <use xlink:href="#embed--4488644464520087492-glyph0-1" x="175.95" y="10.793"/>
</g>
<path style="fill:none;stroke-width:0.398;stroke-linecap:round;stroke-linejoin:round;stroke:rgb(0%,0%,0%);stroke-opacity:1;stroke-miterlimit:10;" d="M 184.72275 6.392906 L 171.964937 6.392906 " transform="matrix(1,0,0,-1,0.996,7.389)"/>
<path style="fill:none;stroke-width:0.398;stroke-linecap:round;stroke-linejoin:round;stroke:rgb(0%,0%,0%);stroke-opacity:1;stroke-miterlimit:10;" d="M 171.964937 6.392906 L 171.964937 -6.39225 " transform="matrix(1,0,0,-1,0.996,7.389)"/>
<path style="fill:none;stroke-width:0.398;stroke-linecap:round;stroke-linejoin:round;stroke:rgb(0%,0%,0%);stroke-opacity:1;stroke-miterlimit:10;" d="M 171.964937 -6.39225 L 184.72275 -6.39225 " transform="matrix(1,0,0,-1,0.996,7.389)"/>
<path style="fill:none;stroke-width:0.398;stroke-linecap:round;stroke-linejoin:round;stroke:rgb(0%,0%,0%);stroke-opacity:1;stroke-miterlimit:10;" d="M 184.72275 -6.39225 L 184.72275 6.392906 " transform="matrix(1,0,0,-1,0.996,7.389)"/>
<path style="fill:none;stroke-width:0.398;stroke-linecap:round;stroke-linejoin:round;stroke:rgb(0%,0%,0%);stroke-opacity:1;stroke-miterlimit:10;" d="M 171.964937 -0.001625 L 164.992281 -0.001625 " transform="matrix(1,0,0,-1,0.996,7.389)"/>
<g style="fill:rgb(0%,0%,0%);fill-opacity:1;">
  <use xlink:href="#embed--4488644464520087492-glyph0-7" x="195.682" y="10.793"/>
</g>
<path style="fill:none;stroke-width:0.398;stroke-linecap:round;stroke-linejoin:round;stroke:rgb(0%,0%,0%);stroke-opacity:1;stroke-miterlimit:10;" d="M 204.359469 6.392906 L 191.695406 6.392906 " transform="matrix(1,0,0,-1,0.996,7.389)"/>
<path style="fill:none;stroke-width:0.398;stroke-linecap:round;stroke-linejoin:round;stroke:rgb(0%,0%,0%);stroke-opacity:1;stroke-miterlimit:10;" d="M 191.695406 6.392906 L 191.695406 -6.39225 " transform="matrix(1,0,0,-1,0.996,7.389)"/>
<path style="fill:none;stroke-width:0.398;stroke-linecap:round;stroke-linejoin:round;stroke:rgb(0%,0%,0%);stroke-opacity:1;stroke-miterlimit:10;" d="M 191.695406 -6.39225 L 204.359469 -6.39225 " transform="matrix(1,0,0,-1,0.996,7.389)"/>
<path style="fill:none;stroke-width:0.398;stroke-linecap:round;stroke-linejoin:round;stroke:rgb(0%,0%,0%);stroke-opacity:1;stroke-miterlimit:10;" d="M 204.359469 -6.39225 L 204.359469 6.392906 " transform="matrix(1,0,0,-1,0.996,7.389)"/>
<path style="fill:none;stroke-width:0.398;stroke-linecap:round;stroke-linejoin:round;stroke:rgb(0%,0%,0%);stroke-opacity:1;stroke-miterlimit:10;" d="M 191.695406 -0.001625 L 184.72275 -0.001625 " transform="matrix(1,0,0,-1,0.996,7.389)"/>
<path style="fill:none;stroke-width:0.398;stroke-linecap:round;stroke-linejoin:round;stroke:rgb(0%,0%,0%);stroke-opacity:1;stroke-miterlimit:10;" d="M 211.332125 -0.001625 L 204.359469 -0.001625 " transform="matrix(1,0,0,-1,0.996,7.389)"/>
</g>
</g>
</svg>