<?xml version="1.0" encoding="UTF-8"?>
<svg xmlns="http://www.w3.org/2000/svg" xmlns:xlink="http://www.w3.org/1999/xlink"
     width="262.61333333333334" height="143.46133333333333" viewBox="0 -143.46133333333333 262.61333333333334 143.46133333333333">
<defs>
<g id="d0">
<g>
<symbol overflow="visible" id="embed-6098484839106835007-glyph0-0">
<path style="stroke:none;" d=""/>
</symbol>
<symbol overflow="visible" id="embed-6098484839106835007-glyph0-1">
<path style="stroke:none;" d="M 4.421875 -2.5 C 4.421875 -3.5625 3.53125 -4.421875 2.5 -4.421875 C 1.421875 -4.421875 0.546875 -3.53125 0.546875 -2.5 C 0.546875 -1.4375 1.421875 -0.5625 2.5 -0.5625 C 3.53125 -0.5625 4.421875 -1.421875 4.421875 -2.5 Z M 4.421875 -2.5 "/>
</symbol>
<symbol overflow="visible" id="embed-6098484839106835007-glyph1-0">
<path style="stroke:none;" d=""/>
</symbol>
<symbol overflow="visible" id="embed-6098484839106835007-glyph1-1">
<path style="stroke:none;" d="M 7.609375 -6.046875 C 7.703125 -6.40625 7.71875 -6.5 8.4375 -6.5 C 8.703125 -6.5 8.78125 -6.5 8.78125 -6.703125 C 8.78125 -6.8125 8.671875 -6.8125 8.640625 -6.8125 C 8.359375 -6.8125 7.640625 -6.78125 7.359375 -6.78125 C 7.078125 -6.78125 6.375 -6.8125 6.078125 -6.8125 C 6 -6.8125 5.890625 -6.8125 5.890625 -6.609375 C 5.890625 -6.5 5.984375 -6.5 6.171875 -6.5 C 6.1875 -6.5 6.375 -6.5 6.546875 -6.484375 C 6.734375 -6.453125 6.8125 -6.453125 6.8125 -6.3125 C 6.8125 -6.28125 6.8125 -6.265625 6.78125 -6.125 L 6.1875 -3.703125 L 3.140625 -3.703125 L 3.734375 -6.046875 C 3.8125 -6.40625 3.84375 -6.5 4.5625 -6.5 C 4.828125 -6.5 4.90625 -6.5 4.90625 -6.703125 C 4.90625 -6.8125 4.796875 -6.8125 4.765625 -6.8125 C 4.484375 -6.8125 3.765625 -6.78125 3.484375 -6.78125 C 3.203125 -6.78125 2.5 -6.8125 2.203125 -6.8125 C 2.125 -6.8125 2.015625 -6.8125 2.015625 -6.609375 C 2.015625 -6.5 2.109375 -6.5 2.296875 -6.5 C 2.3125 -6.5 2.5 -6.5 2.671875 -6.484375 C 2.84375 -6.453125 2.9375 -6.453125 2.9375 -6.3125 C 2.9375 -6.28125 2.9375 -6.25 2.90625 -6.125 L 1.5625 -0.78125 C 1.46875 -0.390625 1.453125 -0.3125 0.65625 -0.3125 C 0.484375 -0.3125 0.390625 -0.3125 0.390625 -0.109375 C 0.390625 0 0.515625 0 0.53125 0 C 0.8125 0 1.515625 -0.03125 1.796875 -0.03125 C 2 -0.03125 2.21875 -0.015625 2.4375 -0.015625 C 2.65625 -0.015625 2.875 0 3.078125 0 C 3.15625 0 3.28125 0 3.28125 -0.203125 C 3.28125 -0.3125 3.1875 -0.3125 3 -0.3125 C 2.625 -0.3125 2.359375 -0.3125 2.359375 -0.484375 C 2.359375 -0.546875 2.375 -0.59375 2.375 -0.65625 L 3.0625 -3.390625 L 6.09375 -3.390625 C 5.6875 -1.734375 5.453125 -0.78125 5.40625 -0.640625 C 5.3125 -0.3125 5.125 -0.3125 4.5 -0.3125 C 4.359375 -0.3125 4.265625 -0.3125 4.265625 -0.109375 C 4.265625 0 4.390625 0 4.40625 0 C 4.6875 0 5.390625 -0.03125 5.671875 -0.03125 C 5.875 -0.03125 6.09375 -0.015625 6.3125 -0.015625 C 6.53125 -0.015625 6.75 0 6.953125 0 C 7.03125 0 7.15625 0 7.15625 -0.203125 C 7.15625 -0.3125 7.0625 -0.3125 6.875 -0.3125 C 6.515625 -0.3125 6.234375 -0.3125 6.234375 -0.484375 C 6.234375 -0.546875 6.25 -0.59375 6.265625 -0.65625 Z M 7.609375 -6.046875 "/>
</symbol>
<symbol overflow="visible" id="embed-6098484839106835007-glyph1-2">
<path style="stroke:none;" d="M 7.171875 -6.5625 C 7.1875 -6.609375 7.203125 -6.65625 7.203125 -6.71875 C 7.203125 -6.8125 7.15625 -6.8125 6.953125 -6.8125 L 2.75 -6.8125 C 2.515625 -6.8125 2.5 -6.796875 2.4375 -6.609375 L 1.890625 -4.8125 C 1.875 -4.765625 1.859375 -4.6875 1.859375 -4.671875 C 1.859375 -4.671875 1.859375 -4.5625 1.984375 -4.5625 C 2.078125 -4.5625 2.09375 -4.640625 2.109375 -4.671875 C 2.5 -5.84375 3.015625 -6.5 4.5625 -6.5 L 6.1875 -6.5 L 0.625 -0.265625 C 0.625 -0.265625 0.578125 -0.125 0.578125 -0.09375 C 0.578125 0 0.640625 0 0.828125 0 L 5.15625 0 C 5.40625 0 5.40625 -0.015625 5.46875 -0.203125 L 6.1875 -2.40625 C 6.1875 -2.4375 6.21875 -2.515625 6.21875 -2.546875 C 6.21875 -2.609375 6.1875 -2.65625 6.09375 -2.65625 C 6 -2.65625 5.984375 -2.625 5.921875 -2.40625 C 5.484375 -1.0625 5 -0.34375 3.3125 -0.34375 L 1.609375 -0.34375 Z M 7.171875 -6.5625 "/>
</symbol>
</g>
</g>
</defs>
<g transform="scale(2.6666666666666665) translate(0, -53.798)">
<g id="embed-6098484839106835007-surface1">
<g style="fill:rgb(0%,0%,0%);fill-opacity:1;">
  <use xlink:href="#embed-6098484839106835007-glyph0-1" x="9.564" y="13.338"/>
</g>
<path style="fill:none;stroke-width:0.398;stroke-linecap:round;stroke-linejoin:round;stroke:rgb(0%,0%,0%);stroke-opacity:1;stroke-miterlimit:10;" d="M 11.058687 -1.354469 L 11.058687 -31.448219 " transform="matrix(1,0,0,-1,0.996,10.876)"/>
<path style="fill:none;stroke-width:0.398;stroke-linecap:round;stroke-linejoin:round;stroke:rgb(0%,0%,0%);stroke-opacity:1;stroke-miterlimit:10;" d="M 9.839937 0.001 L 0.00009375 0.001 " transform="matrix(1,0,0,-1,0.996,10.876)"/>
<path style="fill:none;stroke-width:0.398;stroke-linecap:round;stroke-linejoin:round;stroke:rgb(0%,0%,0%);stroke-opacity:1;stroke-miterlimit:10;" d="M 26.203219 0.001 L 12.277437 0.001 " transform="matrix(1,0,0,-1,0.996,10.876)"/>
<g style="fill:rgb(0%,0%,0%);fill-opacity:1;">
  <use xlink:href="#embed-6098484839106835007-glyph1-1" x="41.245" y="14.279"/>
</g>
<path style="fill:none;stroke-width:0.398;stroke-linecap:round;stroke-linejoin:round;stroke:rgb(0%,0%,0%);stroke-opacity:1;stroke-miterlimit:10;" d="M 52.328219 6.391625 L 37.261812 6.391625 " transform="matrix(1,0,0,-1,0.996,10.876)"/>
<path style="fill:none;stroke-width:0.398;stroke-linecap:round;stroke-linejoin:round;stroke:rgb(0%,0%,0%);stroke-opacity:1;stroke-miterlimit:10;" d="M 37.261812 6.391625 L 37.261812 -6.393531 " transform="matrix(1,0,0,-1,0.996,10.876)"/>
<path style="fill:none;stroke-width:0.398;stroke-linecap:round;stroke-linejoin:round;stroke:rgb(0%,0%,0%);stroke-opacity:1;stroke-miterlimit:10;" d="M 37.261812 -6.393531 L 52.328219 -6.393531 " transform="matrix(1,0,0,-1,0.996,10.876)"/>
<path style="fill:none;stroke-width:0.398;stroke-linecap:round;stroke-linejoin:round;stroke:rgb(0%,0%,0%);stroke-opacity:1;stroke-miterlimit:10;" d="M 52.328219 -6.393531 L 52.328219 6.391625 " transform="matrix(1,0,0,-1,0.996,10.876)"/>
<path style="fill:none;stroke-width:0.398;stroke-linecap:round;stroke-linejoin:round;stroke:rgb(0%,0%,0%);stroke-opacity:1;stroke-miterlimit:10;" d="M 37.261812 0.001 L 26.203219 0.001 " transform="matrix(1,0,0,-1,0.996,10.876)"/>
<g style="fill:rgb(0%,0%,0%);fill-opacity:1;">
  <use xlink:href="#embed-6098484839106835007-glyph0-1" x="61.893" y="13.338"/>
</g>
<path style="fill:none;stroke-width:0.398;stroke-linecap:round;stroke-linejoin:round;stroke:rgb(0%,0%,0%);stroke-opacity:1;stroke-miterlimit:10;" d="M 63.386812 -1.354469 L 63.386812 -13.682594 " transform="matrix(1,0,0,-1,0.996,10.876)"/>
<path style="fill:none;stroke-width:0.398;stroke-linecap:round;stroke-linejoin:round;stroke:rgb(0%,0%,0%);stroke-opacity:1;stroke-miterlimit:10;" d="M 62.168062 0.001 L 52.328219 0.001 " transform="matrix(1,0,0,-1,0.996,10.876)"/>
<g style="fill:rgb(0%,0%,0%);fill-opacity:1;">
  <use xlink:href="#embed-6098484839106835007-glyph1-1" x="78.431" y="14.279"/>
</g>
<path style="fill:none;stroke-width:0.398;stroke-linecap:round;stroke-linejoin:round;stroke:rgb(0%,0%,0%);stroke-opacity:1;stroke-miterlimit:10;" d="M 89.515719 6.391625 L 74.445406 6.391625 " transform="matrix(1,0,0,-1,0.996,10.876)"/>
<path style="fill:none;stroke-width:0.398;stroke-linecap:round;stroke-linejoin:round;stroke:rgb(0%,0%,0%);stroke-opacity:1;stroke-miterlimit:10;" d="M 74.445406 6.391625 L 74.445406 -6.393531 " transform="matrix(1,0,0,-1,0.996,10.876)"/>
<path style="fill:none;stroke-width:0.398;stroke-linecap:round;stroke-linejoin:round;stroke:rgb(0%,0%,0%);stroke-opacity:1;stroke-miterlimit:10;" d="M 74.445406 -6.393531 L 89.515719 -6.393531 " transform="matrix(1,0,0,-1,0.996,10.876)"/>
<path style="fill:none;stroke-width:0.398;stroke-linecap:round;stroke-linejoin:round;stroke:rgb(0%,0%,0%);stroke-opacity:1;stroke-miterlimit:10;" d="M 89.515719 -6.393531 L 89.515719 6.391625 " transform="matrix(1,0,0,-1,0.996,10.876)"/>
<path style="fill:none;stroke-width:0.398;stroke-linecap:round;stroke-linejoin:round;stroke:rgb(0%,0%,0%);stroke-opacity:1;stroke-miterlimit:10;" d="M 74.445406 0.001 L 64.605563 0.001 " transform="matrix(1,0,0,-1,0.996,10.876)"/>
<path style="fill:none;stroke-width:0.398;stroke-linecap:round;stroke-linejoin:round;stroke:rgb(0%,0%,0%);stroke-opacity:1;stroke-miterlimit:10;" d="M 96.488375 0.001 L 89.515719 0.001 " transform="matrix(1,0,0,-1,0.996,10.876)"/>
<path style="fill:none;stroke-width:0.398;stroke-linecap:round;stroke-linejoin:round;stroke:rgb(0%,0%,0%);stroke-opacity:1;stroke-miterlimit:10;" d="M 11.058687 -17.768531 L 0.00009375 -17.768531 " transform="matrix(1,0,0,-1,0.996,10.876)"/>
<g style="fill:rgb(0%,0%,0%);fill-opacity:1;">
  <use xlink:href="#embed-6098484839106835007-glyph0-1" x="24.707" y="31.105"/>
</g>
<path style="fill:none;stroke-width:0.398;stroke-linecap:round;stroke-linejoin:round;stroke:rgb(0%,0%,0%);stroke-opacity:1;stroke-miterlimit:10;" d="M 26.203219 -19.120094 L 26.203219 -31.448219 " transform="matrix(1,0,0,-1,0.996,10.876)"/>
<path style="fill:none;stroke-width:0.398;stroke-linecap:round;stroke-linejoin:round;stroke:rgb(0%,0%,0%);stroke-opacity:1;stroke-miterlimit:10;" d="M 24.984469 -17.768531 L 11.058687 -17.768531 " transform="matrix(1,0,0,-1,0.996,10.876)"/>
<g style="fill:rgb(0%,0%,0%);fill-opacity:1;">
  <use xlink:href="#embed-6098484839106835007-glyph1-1" x="41.245" y="32.046"/>
</g>
<path style="fill:none;stroke-width:0.398;stroke-linecap:round;stroke-linejoin:round;stroke:rgb(0%,0%,0%);stroke-opacity:1;stroke-miterlimit:10;" d="M 52.328219 -11.374 L 37.261812 -11.374 " transform="matrix(1,0,0,-1,0.996,10.876)"/>
<path style="fill:none;stroke-width:0.398;stroke-linecap:round;stroke-linejoin:round;stroke:rgb(0%,0%,0%);stroke-opacity:1;stroke-miterlimit:10;" d="M 37.261812 -11.374 L 37.261812 -24.159156 " transform="matrix(1,0,0,-1,0.996,10.876)"/>
<path style="fill:none;stroke-width:0.398;stroke-linecap:round;stroke-linejoin:round;stroke:rgb(0%,0%,0%);stroke-opacity:1;stroke-miterlimit:10;" d="M 37.261812 -24.159156 L 52.328219 -24.159156 " transform="matrix(1,0,0,-1,0.996,10.876)"/>
<path style="fill:none;stroke-width:0.398;stroke-linecap:round;stroke-linejoin:round;stroke:rgb(0%,0%,0%);stroke-opacity:1;stroke-miterlimit:10;" d="M 52.328219 -24.159156 L 52.328219 -11.374 " transform="matrix(1,0,0,-1,0.996,10.876)"/>
<path style="fill:none;stroke-width:0.398;stroke-linecap:round;stroke-linejoin:round;stroke:rgb(0%,0%,0%);stroke-opacity:1;stroke-miterlimit:10;" d="M 37.261812 -17.768531 L 27.418063 -17.768531 " transform="matrix(1,0,0,-1,0.996,10.876)"/>
<path style="fill:none;stroke-width:0.398;stroke-linecap:round;stroke-linejoin:round;stroke:rgb(0%,0%,0%);stroke-opacity:1;stroke-miterlimit:10;" d="M -3.886906 0.001375 L 3.886531 0.001375 " transform="matrix(1,0,0,-1,64.383,28.642)"/>
<path style="fill:none;stroke-width:0.398;stroke-linecap:round;stroke-linejoin:round;stroke:rgb(0%,0%,0%);stroke-opacity:1;stroke-miterlimit:10;" d="M -0.0001875 -3.885344 L -0.0001875 3.884188 " transform="matrix(1,0,0,-1,64.383,28.642)"/>
<path style="fill:none;stroke-width:0.398;stroke-linecap:round;stroke-linejoin:round;stroke:rgb(0%,0%,0%);stroke-opacity:1;stroke-miterlimit:10;" d="M -0.0001875 3.98575 C -2.199406 3.98575 -3.984562 2.200594 -3.984562 0.001375 " transform="matrix(1,0,0,-1,64.383,28.642)"/>
<path style="fill:none;stroke-width:0.398;stroke-linecap:round;stroke-linejoin:round;stroke:rgb(0%,0%,0%);stroke-opacity:1;stroke-miterlimit:10;" d="M -3.984562 0.001375 C -3.984562 -2.197844 -2.199406 -3.986906 -0.0001875 -3.986906 " transform="matrix(1,0,0,-1,64.383,28.642)"/>
<path style="fill:none;stroke-width:0.398;stroke-linecap:round;stroke-linejoin:round;stroke:rgb(0%,0%,0%);stroke-opacity:1;stroke-miterlimit:10;" d="M -0.0001875 -3.986906 C 2.199031 -3.986906 3.984188 -2.197844 3.984188 0.001375 " transform="matrix(1,0,0,-1,64.383,28.642)"/>
<path style="fill:none;stroke-width:0.398;stroke-linecap:round;stroke-linejoin:round;stroke:rgb(0%,0%,0%);stroke-opacity:1;stroke-miterlimit:10;" d="M 3.984188 0.001375 C 3.984188 2.200594 2.199031 3.98575 -0.0001875 3.98575 " transform="matrix(1,0,0,-1,64.383,28.642)"/>
<path style="fill:none;stroke-width:0.398;stroke-linecap:round;stroke-linejoin:round;stroke:rgb(0%,0%,0%);stroke-opacity:1;stroke-miterlimit:10;" d="M 59.300875 -17.768531 L 52.328219 -17.768531 " transform="matrix(1,0,0,-1,0.996,10.876)"/>
<g style="fill:rgb(0%,0%,0%);fill-opacity:1;">
  <use xlink:href="#embed-6098484839106835007-glyph1-1" x="78.431" y="32.046"/>
</g>
<path style="fill:none;stroke-width:0.398;stroke-linecap:round;stroke-linejoin:round;stroke:rgb(0%,0%,0%);stroke-opacity:1;stroke-miterlimit:10;" d="M 89.515719 -11.374 L 74.445406 -11.374 " transform="matrix(1,0,0,-1,0.996,10.876)"/>
<path style="fill:none;stroke-width:0.398;stroke-linecap:round;stroke-linejoin:round;stroke:rgb(0%,0%,0%);stroke-opacity:1;stroke-miterlimit:10;" d="M 74.445406 -11.374 L 74.445406 -24.159156 " transform="matrix(1,0,0,-1,0.996,10.876)"/>
<path style="fill:none;stroke-width:0.398;stroke-linecap:round;stroke-linejoin:round;stroke:rgb(0%,0%,0%);stroke-opacity:1;stroke-miterlimit:10;" d="M 74.445406 -24.159156 L 89.515719 -24.159156 " transform="matrix(1,0,0,-1,0.996,10.876)"/>
<path style="fill:none;stroke-width:0.398;stroke-linecap:round;stroke-linejoin:round;stroke:rgb(0%,0%,0%);stroke-opacity:1;stroke-miterlimit:10;" d="M 89.515719 -24.159156 L 89.515719 -11.374 " transform="matrix(1,0,0,-1,0.996,10.876)"/>
<path style="fill:none;stroke-width:0.398;stroke-linecap:round;stroke-linejoin:round;stroke:rgb(0%,0%,0%);stroke-opacity:1;stroke-miterlimit:10;" d="M 74.445406 -17.768531 L 67.47275 -17.768531 " transform="matrix(1,0,0,-1,0.996,10.876)"/>
<path style="fill:none;stroke-width:0.398;stroke-linecap:round;stroke-linejoin:round;stroke:rgb(0%,0%,0%);stroke-opacity:1;stroke-miterlimit:10;" d="M 96.488375 -17.768531 L 89.515719 -17.768531 " transform="matrix(1,0,0,-1,0.996,10.876)"/>
<path style="fill:none;stroke-width:0.398;stroke-linecap:round;stroke-linejoin:round;stroke:rgb(0%,0%,0%);stroke-opacity:1;stroke-miterlimit:10;" d="M -3.883125 -0.00115625 L 3.886406 -0.00115625 " transform="matrix(1,0,0,-1,12.055,46.409)"/>
<path style="fill:none;stroke-width:0.398;stroke-linecap:round;stroke-linejoin:round;stroke:rgb(0%,0%,0%);stroke-opacity:1;stroke-miterlimit:10;" d="M -0.0003125 -3.883969 L -0.0003125 3.885563 " transform="matrix(1,0,0,-1,12.055,46.409)"/>
<path style="fill:none;stroke-width:0.398;stroke-linecap:round;stroke-linejoin:round;stroke:rgb(0%,0%,0%);stroke-opacity:1;stroke-miterlimit:10;" d="M -0.0003125 3.983219 C -2.199531 3.983219 -3.984688 2.198063 -3.984688 -0.00115625 " transform="matrix(1,0,0,-1,12.055,46.409)"/>
<path style="fill:none;stroke-width:0.398;stroke-linecap:round;stroke-linejoin:round;stroke:rgb(0%,0%,0%);stroke-opacity:1;stroke-miterlimit:10;" d="M -3.984688 -0.00115625 C -3.984688 -2.200375 -2.199531 -3.985531 -0.0003125 -3.985531 " transform="matrix(1,0,0,-1,12.055,46.409)"/>
<path style="fill:none;stroke-width:0.398;stroke-linecap:round;stroke-linejoin:round;stroke:rgb(0%,0%,0%);stroke-opacity:1;stroke-miterlimit:10;" d="M -0.0003125 -3.985531 C 2.198906 -3.985531 3.984062 -2.200375 3.984062 -0.00115625 " transform="matrix(1,0,0,-1,12.055,46.409)"/>
<path style="fill:none;stroke-width:0.398;stroke-linecap:round;stroke-linejoin:round;stroke:rgb(0%,0%,0%);stroke-opacity:1;stroke-miterlimit:10;" d="M 3.984062 -0.00115625 C 3.984062 2.198063 2.198906 3.983219 -0.0003125 3.983219 " transform="matrix(1,0,0,-1,12.055,46.409)"/>
<path style="fill:none;stroke-width:0.398;stroke-linecap:round;stroke-linejoin:round;stroke:rgb(0%,0%,0%);stroke-opacity:1;stroke-miterlimit:10;" d="M 6.97275 -35.534156 L 0.00009375 -35.534156 " transform="matrix(1,0,0,-1,0.996,10.876)"/>
<path style="fill:none;stroke-width:0.398;stroke-linecap:round;stroke-linejoin:round;stroke:rgb(0%,0%,0%);stroke-opacity:1;stroke-miterlimit:10;" d="M -3.8855 -0.00115625 L 3.884031 -0.00115625 " transform="matrix(1,0,0,-1,27.198,46.409)"/>
<path style="fill:none;stroke-width:0.398;stroke-linecap:round;stroke-linejoin:round;stroke:rgb(0%,0%,0%);stroke-opacity:1;stroke-miterlimit:10;" d="M 0.00121875 -3.883969 L 0.00121875 3.885563 " transform="matrix(1,0,0,-1,27.198,46.409)"/>
<path style="fill:none;stroke-width:0.398;stroke-linecap:round;stroke-linejoin:round;stroke:rgb(0%,0%,0%);stroke-opacity:1;stroke-miterlimit:10;" d="M 0.00121875 3.983219 C -2.198 3.983219 -3.983156 2.198063 -3.983156 -0.00115625 " transform="matrix(1,0,0,-1,27.198,46.409)"/>
<path style="fill:none;stroke-width:0.398;stroke-linecap:round;stroke-linejoin:round;stroke:rgb(0%,0%,0%);stroke-opacity:1;stroke-miterlimit:10;" d="M -3.983156 -0.00115625 C -3.983156 -2.200375 -2.198 -3.985531 0.00121875 -3.985531 " transform="matrix(1,0,0,-1,27.198,46.409)"/>
<path style="fill:none;stroke-width:0.398;stroke-linecap:round;stroke-linejoin:round;stroke:rgb(0%,0%,0%);stroke-opacity:1;stroke-miterlimit:10;" d="M 0.00121875 -3.985531 C 2.200437 -3.985531 3.985594 -2.200375 3.985594 -0.00115625 " transform="matrix(1,0,0,-1,27.198,46.409)"/>
<path style="fill:none;stroke-width:0.398;stroke-linecap:round;stroke-linejoin:round;stroke:rgb(0%,0%,0%);stroke-opacity:1;stroke-miterlimit:10;" d="M 3.985594 -0.00115625 C 3.985594 2.198063 2.200437 3.983219 0.00121875 3.983219 " transform="matrix(1,0,0,-1,27.198,46.409)"/>
<path style="fill:none;stroke-width:0.398;stroke-linecap:round;stroke-linejoin:round;stroke:rgb(0%,0%,0%);stroke-opacity:1;stroke-miterlimit:10;" d="M 22.117281 -35.534156 L 15.144625 -35.534156 " transform="matrix(1,0,0,-1,0.996,10.876)"/>
<g style="fill:rgb(0%,0%,0%);fill-opacity:1;">
  <use xlink:href="#embed-6098484839106835007-glyph1-2" x="42.034" y="49.813"/>
</g>
<path style="fill:none;stroke-width:0.398;stroke-linecap:round;stroke-linejoin:round;stroke:rgb(0%,0%,0%);stroke-opacity:1;stroke-miterlimit:10;" d="M 51.539156 -29.139625 L 38.050875 -29.139625 " transform="matrix(1,0,0,-1,0.996,10.876)"/>
<path style="fill:none;stroke-width:0.398;stroke-linecap:round;stroke-linejoin:round;stroke:rgb(0%,0%,0%);stroke-opacity:1;stroke-miterlimit:10;" d="M 38.050875 -29.139625 L 38.050875 -41.924781 " transform="matrix(1,0,0,-1,0.996,10.876)"/>
<path style="fill:none;stroke-width:0.398;stroke-linecap:round;stroke-linejoin:round;stroke:rgb(0%,0%,0%);stroke-opacity:1;stroke-miterlimit:10;" d="M 38.050875 -41.924781 L 51.539156 -41.924781 " transform="matrix(1,0,0,-1,0.996,10.876)"/>
<path style="fill:none;stroke-width:0.398;stroke-linecap:round;stroke-linejoin:round;stroke:rgb(0%,0%,0%);stroke-opacity:1;stroke-miterlimit:10;" d="M 51.539156 -41.924781 L 51.539156 -29.139625 " transform="matrix(1,0,0,-1,0.996,10.876)"/>
<path style="fill:none;stroke-width:0.398;stroke-linecap:round;stroke-linejoin:round;stroke:rgb(0%,0%,0%);stroke-opacity:1;stroke-miterlimit:10;" d="M 38.050875 -35.534156 L 30.28525 -35.534156 " transform="matrix(1,0,0,-1,0.996,10.876)"/>
<path style="fill:none;stroke-width:0.398;stroke-linecap:round;stroke-linejoin:round;stroke:rgb(0%,0%,0%);stroke-opacity:1;stroke-miterlimit:10;" d="M 63.386812 -35.534156 L 51.539156 -35.534156 " transform="matrix(1,0,0,-1,0.996,10.876)"/>
<g style="fill:rgb(0%,0%,0%);fill-opacity:1;">
  <use xlink:href="#embed-6098484839106835007-glyph0-1" x="80.485" y="48.872"/>
</g>
<path style="fill:none;stroke-width:0.398;stroke-linecap:round;stroke-linejoin:round;stroke:rgb(0%,0%,0%);stroke-opacity:1;stroke-miterlimit:10;" d="M 81.980562 -34.452125 L 81.980562 -24.159156 " transform="matrix(1,0,0,-1,0.996,10.876)"/>
<path style="fill:none;stroke-width:0.398;stroke-linecap:round;stroke-linejoin:round;stroke:rgb(0%,0%,0%);stroke-opacity:1;stroke-miterlimit:10;" d="M 80.761812 -35.534156 L 63.386812 -35.534156 " transform="matrix(1,0,0,-1,0.996,10.876)"/>
<path style="fill:none;stroke-width:0.398;stroke-linecap:round;stroke-linejoin:round;stroke:rgb(0%,0%,0%);stroke-opacity:1;stroke-miterlimit:10;" d="M 96.488375 -35.534156 L 83.195406 -35.534156 " transform="matrix(1,0,0,-1,0.996,10.876)"/>
<path style="fill:none;stroke-width:0.398;stroke-linecap:round;stroke-linejoin:round;stroke:rgb(0%,0%,0%);stroke-opacity:1;stroke-dasharray:5.38435;stroke-miterlimit:10;" d="M 0.00053125 -0.0014375 L 59.227094 -0.0014375 M 0.00053125 37.525906 L 59.227094 37.525906 " transform="matrix(1,0,0,-1,34.769,38.522)"/>
<path style="fill:none;stroke-width:0.398;stroke-linecap:round;stroke-linejoin:round;stroke:rgb(0%,0%,0%);stroke-opacity:1;stroke-dasharray:5.36087;stroke-miterlimit:10;" d="M 0.00053125 -0.0014375 L 0.00053125 37.525906 M 59.227094 -0.0014375 L 59.227094 37.525906 " transform="matrix(1,0,0,-1,34.769,38.522)"/>
</g>
</g>
</svg>