<?xml version="1.0" encoding="UTF-8"?>
<svg xmlns="http://www.w3.org/2000/svg" xmlns:xlink="http://www.w3.org/1999/xlink"
     width="100" height="100" viewBox="-50.0 -50.0 100 100">
<defs>
<g id="d0">
<g>
<symbol overflow="visible" id="embed-4983923644680348029-glyph0-0">
<path style="stroke:none;" d=""/>
</symbol>
<symbol overflow="visible" id="embed-4983923644680348029-glyph0-1">
<path style="stroke:none;" d="M 3.875 8.515625 L 2.125 4.640625 C 2.046875 4.484375 2 4.484375 1.96875 4.484375 C 1.96875 4.484375 1.90625 4.484375 1.796875 4.5625 L 0.859375 5.28125 C 0.734375 5.390625 0.734375 5.40625 0.734375 5.4375 C 0.734375 5.5 0.75 5.546875 0.828125 5.546875 C 0.890625 5.546875 1.0625 5.40625 1.171875 5.328125 C 1.21875 5.28125 1.375 5.171875 1.484375 5.09375 L 3.453125 9.40625 C 3.515625 9.5625 3.5625 9.5625 3.65625 9.5625 C 3.8125 9.5625 3.84375 9.515625 3.90625 9.375 L 8.4375 0 C 8.5 -0.140625 8.5 -0.171875 8.5 -0.203125 C 8.5 -0.296875 8.421875 -0.40625 8.296875 -0.40625 C 8.21875 -0.40625 8.15625 -0.34375 8.078125 -0.1875 Z M 3.875 8.515625 "/>
</symbol>
<symbol overflow="visible" id="embed-4983923644680348029-glyph1-0">
<path style="stroke:none;" d=""/>
</symbol>
<symbol overflow="visible" id="embed-4983923644680348029-glyph1-1">
<path style="stroke:none;" d="M 4.828125 -4.09375 L 4 -6.078125 C 3.96875 -6.15625 3.953125 -6.203125 3.953125 -6.203125 C 3.953125 -6.265625 4.109375 -6.453125 4.53125 -6.5 C 4.640625 -6.515625 4.734375 -6.515625 4.734375 -6.6875 C 4.734375 -6.8125 4.609375 -6.8125 4.578125 -6.8125 C 4.171875 -6.8125 3.75 -6.78125 3.328125 -6.78125 C 3.078125 -6.78125 2.46875 -6.8125 2.21875 -6.8125 C 2.15625 -6.8125 2.03125 -6.8125 2.03125 -6.609375 C 2.03125 -6.5 2.140625 -6.5 2.265625 -6.5 C 2.859375 -6.5 2.921875 -6.40625 3.015625 -6.1875 L 4.1875 -3.40625 L 2.078125 -1.140625 L 1.953125 -1.03125 C 1.46875 -0.5 1 -0.34375 0.484375 -0.3125 C 0.359375 -0.296875 0.265625 -0.296875 0.265625 -0.109375 C 0.265625 -0.09375 0.265625 0 0.40625 0 C 0.703125 0 1.03125 -0.03125 1.328125 -0.03125 C 1.703125 -0.03125 2.09375 0 2.453125 0 C 2.515625 0 2.625 0 2.625 -0.203125 C 2.625 -0.296875 2.53125 -0.3125 2.515625 -0.3125 C 2.421875 -0.3125 2.109375 -0.34375 2.109375 -0.625 C 2.109375 -0.78125 2.265625 -0.9375 2.375 -1.0625 L 3.40625 -2.140625 L 4.296875 -3.125 L 5.296875 -0.734375 C 5.34375 -0.625 5.359375 -0.625 5.359375 -0.59375 C 5.359375 -0.515625 5.15625 -0.34375 4.78125 -0.3125 C 4.671875 -0.296875 4.578125 -0.296875 4.578125 -0.125 C 4.578125 0 4.6875 0 4.71875 0 C 5 0 5.703125 -0.03125 5.984375 -0.03125 C 6.234375 -0.03125 6.84375 0 7.09375 0 C 7.15625 0 7.28125 0 7.28125 -0.1875 C 7.28125 -0.3125 7.171875 -0.3125 7.09375 -0.3125 C 6.4375 -0.3125 6.40625 -0.34375 6.234375 -0.75 C 5.859375 -1.671875 5.1875 -3.234375 4.953125 -3.828125 C 5.625 -4.53125 6.671875 -5.71875 7 -5.984375 C 7.28125 -6.234375 7.671875 -6.46875 8.265625 -6.5 C 8.390625 -6.515625 8.484375 -6.515625 8.484375 -6.703125 C 8.484375 -6.703125 8.484375 -6.8125 8.359375 -6.8125 C 8.0625 -6.8125 7.71875 -6.78125 7.421875 -6.78125 C 7.046875 -6.78125 6.671875 -6.8125 6.3125 -6.8125 C 6.25 -6.8125 6.125 -6.8125 6.125 -6.609375 C 6.125 -6.546875 6.171875 -6.515625 6.234375 -6.5 C 6.328125 -6.484375 6.640625 -6.46875 6.640625 -6.1875 C 6.640625 -6.046875 6.53125 -5.921875 6.453125 -5.828125 Z M 4.828125 -4.09375 "/>
</symbol>
<symbol overflow="visible" id="embed-4983923644680348029-glyph2-0">
<path style="stroke:none;" d=""/>
</symbol>
<symbol overflow="visible" id="embed-4983923644680348029-glyph2-1">
<path style="stroke:none;" d="M 1.90625 -2.90625 C 2.015625 -2.90625 2.078125 -2.890625 2.296875 -2.84375 C 2.515625 -2.78125 2.6875 -2.734375 2.8125 -2.734375 C 3.09375 -2.734375 3.109375 -2.9375 3.109375 -3 C 3.109375 -3.0625 3.09375 -3.28125 2.8125 -3.28125 C 2.6875 -3.28125 2.515625 -3.234375 2.296875 -3.171875 C 2.078125 -3.109375 2.015625 -3.109375 1.90625 -3.09375 C 1.921875 -3.34375 1.96875 -3.625 2 -3.84375 C 2.03125 -3.984375 2.09375 -4.34375 2.09375 -4.578125 C 2.09375 -4.796875 2 -4.90625 1.828125 -4.90625 C 1.671875 -4.90625 1.546875 -4.828125 1.546875 -4.578125 C 1.546875 -4.359375 1.609375 -4 1.65625 -3.765625 C 1.671875 -3.6875 1.734375 -3.359375 1.734375 -3.09375 C 1.640625 -3.109375 1.5625 -3.109375 1.359375 -3.171875 C 1.140625 -3.234375 0.96875 -3.28125 0.84375 -3.28125 C 0.5625 -3.28125 0.53125 -3.0625 0.53125 -3 C 0.53125 -2.953125 0.5625 -2.734375 0.84375 -2.734375 C 0.96875 -2.734375 1.140625 -2.78125 1.359375 -2.84375 C 1.5625 -2.890625 1.640625 -2.90625 1.734375 -2.90625 C 1.734375 -2.734375 1.671875 -2.515625 1.640625 -2.375 C 1.546875 -1.9375 1.546875 -1.890625 1.546875 -1.53125 C 1.546875 -0.1875 1.6875 1.25 1.703125 1.390625 C 1.71875 1.453125 1.734375 1.484375 1.828125 1.484375 C 1.9375 1.484375 1.9375 1.453125 1.953125 1.359375 C 1.953125 1.34375 2 0.734375 2.03125 0.3125 C 2.0625 -0.296875 2.09375 -0.90625 2.09375 -1.53125 C 2.09375 -1.890625 2.09375 -1.9375 2 -2.390625 C 1.984375 -2.453125 1.921875 -2.734375 1.90625 -2.90625 Z M 1.90625 -2.90625 "/>
</symbol>
</g>
<clipPath id="embed-4983923644680348029-clip1">
  <path d="M 0 0 L 9 0 L 9 10.359375 L 0 10.359375 Z M 0 0 "/>
</clipPath>
<clipPath id="embed-4983923644680348029-clip2">
  <path d="M 8 0 L 21.488281 0 L 21.488281 1 L 8 1 Z M 8 0 "/>
</clipPath>
</g>
</defs>
<circle cx="0" cy="0" r="49" fill="yellow" stroke="black" stroke-width="2" />
<g transform="scale(3.3333333333333335) translate(-10.7445, -5.1805)">
<g id="embed-4983923644680348029-surface1">
<g clip-path="url(#embed-4983923644680348029-clip1)" clip-rule="nonzero">
<g style="fill:rgb(0%,0%,0%);fill-opacity:1;">
  <use xlink:href="#embed-4983923644680348029-glyph0-1" x="0" y="0.797"/>
</g>
</g>
<g clip-path="url(#embed-4983923644680348029-clip2)" clip-rule="nonzero">
<path style="fill:none;stroke-width:0.398;stroke-linecap:butt;stroke-linejoin:miter;stroke:rgb(0%,0%,0%);stroke-opacity:1;stroke-miterlimit:10;" d="M -0.00121875 0.00034375 L 13.186281 0.00034375 " transform="matrix(1,0,0,-1,8.302,0.598)"/>
</g>
<g style="fill:rgb(0%,0%,0%);fill-opacity:1;">
  <use xlink:href="#embed-4983923644680348029-glyph1-1" x="8.302" y="9.688"/>
</g>
<g style="fill:rgb(0%,0%,0%);fill-opacity:1;">
  <use xlink:href="#embed-4983923644680348029-glyph2-1" x="17.338" y="6.81"/>
</g>
</g>
</g>
</svg>